<svg aria-hidden="true" style="position: absolute; width: 0; height: 0; overflow: hidden;" version="1.1" xmlns="http://www.w3.org/2000/svg" xmlns:xlink="http://www.w3.org/1999/xlink">
<defs>
<symbol id="icon-1" viewBox="0 0 102 32">
<path fill="none" stroke="#5bb839" style="stroke: var(--color1, #5bb839)" stroke-linejoin="miter" stroke-linecap="round" stroke-miterlimit="4" stroke-width="3.5556" d="M99.988 3.996c-31.822 24.309-53.274 20.293-94.181 0.138M5.807 4.133c10.572 10.324 15.544 16.056 15.162 25.756M5.807 4.133c11.792 1.508 18.012 1.391 27.713-2.263"></path>
</symbol>
<symbol id="icon-2" viewBox="0 0 34 32">
<path fill="none" stroke="#5bb839" style="stroke: var(--color1, #5bb839)" stroke-linejoin="miter" stroke-linecap="round" stroke-miterlimit="4" stroke-width="1.5059" d="M1.084 0.753c3.609 16.636 11.697 21.254 30.582 26.021M31.666 26.773c-6.298 0.421-9.503 0.904-12.068 4.145M31.666 26.773c-4.251-2.765-6.241-4.519-8.383-8.375"></path>
</symbol>
<symbol id="icon-3" viewBox="0 0 30 32">
<path fill="none" stroke="#5bb839" style="stroke: var(--color1, #5bb839)" stroke-linejoin="miter" stroke-linecap="round" stroke-miterlimit="4" stroke-width="1.8182" d="M3.96 1.091c-2.135 3.404-2.917 5.431-2.724 9.508 0.63 4 2.067 5.648 5.232 7.537 0.621 0.371 1.349 0.535 2.068 0.448 1.417-0.171 2.353-0.495 3.111-1.66 0.224-0.345 0.344-0.75 0.369-1.161 0.059-0.965-0.109-1.622-0.705-2.199-0.66-0.639-1.724-0.766-2.502-0.278-0.476 0.299-0.803 0.712-1.091 1.375-0.089 0.204-0.156 0.441-0.189 0.688l-0.002 0.014c-0.413 2.953 0.057 4.85 3.138 8.56 3.087 3.056 5.347 4.137 10.195 4.739 0.128 0.017 0.277 0.026 0.428 0.026 0.073 0 0.146-0.002 0.218-0.007l-0.010 0 6.344-0.367M27.839 28.313l-4.662 2.665M27.839 28.313l-4.667-3.262"></path>
</symbol>
<symbol id="icon-5" viewBox="0 0 30 32">
<path fill="none" stroke="#71b839" style="stroke: var(--color2, #71b839)" stroke-linejoin="miter" stroke-linecap="round" stroke-miterlimit="4" stroke-width="2.7429" d="M11.845 19.358l13.254-13.253M1.371 10.78v-9.409M18.472 30.545l9.435-0.773"></path>
</symbol>
<symbol id="icon-4" viewBox="0 0 29 32">
<path fill="none" stroke="#000000" stroke-linejoin="miter" stroke-linecap="round" stroke-miterlimit="4" stroke-width="3.6571" d="M11.886 19.2l12.8-12.8M1.829 10.971v-9.143M18.286 30.004l9.113-0.747"></path>
</symbol>
</defs>
</svg>
