<svg aria-hidden="true" style="position: absolute; width: 0; height: 0; overflow: hidden;" version="1.1" xmlns="http://www.w3.org/2000/svg" xmlns:xlink="http://www.w3.org/1999/xlink">
<defs>
<symbol id="icon-telefon" viewBox="0 0 32 32">
<path fill="none" stroke="#bdbdbd" style="stroke: var(--color1, #bdbdbd)" stroke-linejoin="round" stroke-linecap="round" stroke-miterlimit="4" stroke-width="2.4615" d="M8.855 1.231h-4.516c-1.717 0-3.109 1.392-3.109 3.109v0c0 14.597 11.833 26.43 26.43 26.43 1.717 0 3.109-1.392 3.109-3.109v0-4.516c0-1.342-0.817-2.548-2.063-3.047l-4.326-1.729c-0.361-0.148-0.78-0.235-1.219-0.235-0.801 0-1.536 0.287-2.106 0.764l0.005-0.004-1.118 0.932c-0.565 0.473-1.299 0.761-2.101 0.761-0.906 0-1.727-0.367-2.321-0.961l-3.146-3.146c-0.594-0.594-0.961-1.415-0.961-2.321 0-0.802 0.287-1.536 0.765-2.106l-0.004 0.005 0.932-1.118c0.473-0.565 0.76-1.299 0.76-2.101 0-0.439-0.086-0.858-0.243-1.241l0.008 0.022-1.729-4.326c-0.498-1.219-1.674-2.063-3.047-2.063v0z"></path>
</symbol>
<symbol id="icon-facebook" viewBox="0 0 32 32">
<path fill="#545558" style="fill: var(--color2, #545558)" d="M16 0c-8.837 0-16 7.163-16 16 0 7.986 5.851 14.605 13.501 15.806v-11.182h-4.064v-4.624h4.064v-3.525c0-4.010 2.387-6.224 6.043-6.224 1.75 0 3.581 0.312 3.581 0.312v3.936h-2.016c-1.989 0-2.608 1.234-2.608 2.499v3.002h4.437l-0.709 4.624h-3.728v11.182c7.648-1.2 13.499-7.822 13.499-15.806 0-8.837-7.163-16-16-16z"></path>
</symbol>
<symbol id="icon-twitter" viewBox="0 0 39 32">
<path fill="#545558" style="fill: var(--color2, #545558)" d="M37.621 4.722c-1.243 0.566-2.686 0.977-4.198 1.163l-0.072 0.007c1.538-0.931 2.695-2.361 3.256-4.061l0.015-0.053c-1.458 0.868-3.056 1.476-4.722 1.804-1.36-1.453-3.29-2.358-5.432-2.358-4.106 0-7.435 3.329-7.435 7.435 0 0.604 0.072 1.192 0.208 1.755l-0.010-0.051c-6.194-0.32-11.642-3.263-15.295-7.731l-0.030-0.038c-0.632 1.068-1.006 2.355-1.006 3.728 0 0.004 0 0.007 0 0.011v-0.001c0 2.578 1.312 4.853 3.307 6.187-1.242-0.040-2.396-0.379-3.404-0.947l0.037 0.019v0.092c0.002 3.585 2.539 6.578 5.916 7.28l0.048 0.008c-0.588 0.166-1.264 0.262-1.961 0.262-0.495 0-0.978-0.048-1.446-0.14l0.047 0.008c0.977 2.978 3.706 5.102 6.939 5.164l0.007 0c-2.511 1.986-5.724 3.187-9.216 3.187-0.63 0-1.251-0.039-1.861-0.115l0.073 0.007c3.215 2.096 7.15 3.342 11.376 3.342 0.007 0 0.014 0 0.021 0h-0.001c13.675 0 21.156-11.33 21.156-21.156 0-0.32-0.011-0.644-0.025-0.96 1.461-1.064 2.692-2.339 3.676-3.795l0.034-0.053v-0.002z"></path>
</symbol>
<symbol id="icon-mail" viewBox="0 0 36 32">
<path fill="#bdbdbd" style="fill: var(--color1, #bdbdbd)" d="M1.778 0h32c0.982 0 1.778 0.796 1.778 1.778v0 28.444c0 0.982-0.796 1.778-1.778 1.778v0h-32c-0.982 0-1.778-0.796-1.778-1.778v0-28.444c0-0.982 0.796-1.778 1.778-1.778v0zM32 7.534l-14.094 12.622-14.35-12.661v20.949h28.444v-20.91zM4.464 3.556l13.422 11.844 13.228-11.844h-26.651z"></path>
</symbol>
</defs>
</svg>
